<?xml version="1.0" encoding="UTF-8" standalone="no"?>
<!-- Created with Inkscape (http://www.inkscape.org/) -->

<svg
   version="1.1"
   id="svg1"
   width="209.33333"
   height="294.66666"
   viewBox="0 0 209.33333 294.66666"
   sodipodi:docname="logo.svg"
   inkscape:version="1.3 (0e150ed6c4, 2023-07-21)"
   xmlns:inkscape="http://www.inkscape.org/namespaces/inkscape"
   xmlns:sodipodi="http://sodipodi.sourceforge.net/DTD/sodipodi-0.dtd"
   xmlns="http://www.w3.org/2000/svg"
   xmlns:svg="http://www.w3.org/2000/svg">
  <defs
     id="defs1">
    <clipPath
       clipPathUnits="userSpaceOnUse"
       id="clipPath1">
      <path
         d="M 0,0 H 157 V 221 H 0 Z"
         id="path1" />
    </clipPath>
    <clipPath
       clipPathUnits="userSpaceOnUse"
       id="clipPath3">
      <path
         d="m 0,163.359 h 101.223 v 45.109 H 0 Z"
         transform="scale(1.3333333)"
         id="path3" />
    </clipPath>
    <clipPath
       clipPathUnits="userSpaceOnUse"
       id="clipPath4">
      <path
         d="M 0,0 H 157 V 221 H 0 Z"
         id="path4" />
    </clipPath>
    <clipPath
       clipPathUnits="userSpaceOnUse"
       id="clipPath6">
      <path
         d="M 3.707,0 H 157 V 221 H 3.707 Z"
         transform="scale(1.3333333)"
         id="path6" />
    </clipPath>
    <clipPath
       clipPathUnits="userSpaceOnUse"
       id="clipPath7">
      <path
         d="M 0,0 H 157 V 221 H 0 Z"
         id="path7" />
    </clipPath>
    <clipPath
       clipPathUnits="userSpaceOnUse"
       id="clipPath9">
      <path
         d="m 0,124.711 h 157 v 51 H 0 Z"
         transform="scale(1.3333333)"
         id="path9" />
    </clipPath>
  </defs>
  <sodipodi:namedview
     id="namedview1"
     pagecolor="#505050"
     bordercolor="#eeeeee"
     borderopacity="1"
     inkscape:showpageshadow="0"
     inkscape:pageopacity="0"
     inkscape:pagecheckerboard="0"
     inkscape:deskcolor="#d1d1d1"
     inkscape:zoom="2.9660635"
     inkscape:cx="104.68421"
     inkscape:cy="147.5019"
     inkscape:window-width="1157"
     inkscape:window-height="503"
     inkscape:window-x="0"
     inkscape:window-y="0"
     inkscape:window-maximized="1"
     inkscape:current-layer="g1">
    <inkscape:page
       x="0"
       y="0"
       id="page1"
       width="209.33333"
       height="294.66666"
       margin="0"
       bleed="0" />
  </sodipodi:namedview>
  <g
     id="g1"
     inkscape:groupmode="layer"
     inkscape:label="">
    <g
       id="g2"
       clip-path="url(#clipPath3)">
      <path
         d="m 0,185.914 c 0,11.902 9.652,21.555 21.555,21.555 8.168,0 15.269,-4.539 18.925,-11.235 h 6.438 V 193 H 94.75 l 5.473,-7.094 -5.473,-4.402 -3.289,-2.699 -2.871,2.699 -2.344,-0.008 -4,-2.762 -3.875,2.754 h -2.594 l -3.984,-2.754 -3.891,2.762 H 65.34 l -4,-2.762 -3.899,2.77 h -2.293 l -0.613,-0.109 -5.051,-2.997 h -2.566 v -2.804 H 40.48 C 36.824,168.898 29.723,164.359 21.555,164.359 9.652,164.359 0,174.008 0,185.914 Z m 5.488,0 c 0,-2.719 2.203,-4.918 4.918,-4.918 2.715,0 4.918,2.199 4.918,4.918 0,2.715 -2.203,4.918 -4.918,4.918 -2.715,0 -4.918,-2.203 -4.918,-4.918 z"
         style="fill:#7e0c46;fill-opacity:1;fill-rule:nonzero;stroke:none"
         transform="scale(1.3333333)"
         clip-path="url(#clipPath1)"
         id="path2" />
    </g>
    <g
       id="g5"
       clip-path="url(#clipPath6)">
      <path
         d="m 4.734,189.797 c -0.156,4.18 0.328,8.348 1.524,12.328 1.461,4.867 4.047,9.598 8.613,12.406 4.016,2.473 8.703,2.824 13.277,3.274 3.793,0.367 7.625,0.875 11.497,1.25 16.984,1.652 35.246,1.289 52.593,0.476 6.645,-0.312 13.336,-0.586 19.875,-1.586 5.075,-0.777 10.024,-2.004 14.641,-4.277 9.984,-4.914 17.019,-13.984 21.855,-24.184 8.293,-17.488 10.079,-38.195 5.036,-60.859 -1.399,-6.297 -3.93,-12.242 -7.993,-17.254 -4.527,-5.582 -11.636,-8.375 -18.621,-10.187 -10.027,-2.602 -20.328,-3.348 -30.703,-3.797 -10.301,-0.446 -20.926,-0.086 -31.18,-0.262 -2.628,-0.047 -5.429,-0.27 -7.16,-2.227 -2.019,-2.289 -1.57,-5.164 -1.351,-8.128 0.269,-3.68 -0.219,-7.762 -0.184,-11.622 0.059,-7.058 1.106,-14.046 2.223,-21.011 1.492,-9.317 4.211,-19.043 11.886,-23.364 3.559,-2.003 7.575,-2.359 11.641,-1.093 3.567,1.109 6.531,3.547 8.707,6.578 3.293,4.594 4.567,10.359 4.711,16.031 0.082,3.285 -0.258,6.574 0.082,9.809 0.125,1.207 0.367,2.449 1.211,3.32 1.293,1.336 3.316,1.25 5.184,1.195 3.714,-0.109 7.757,0.078 11.441,0.614 2.145,0.312 4.121,0.679 6.231,-0.086 5.398,-1.95 6.054,-8.68 5.902,-14.758 -0.188,-7.5 0.234,-15.613 -2.215,-23.332 C 119.242,15.746 107.836,6.125 94.352,2.25 76.238,-2.957 53.996,0.668 38.426,15.254 23.902,28.859 17.934,50.293 15.969,72.266 c -1.067,11.941 -1.227,23.961 -0.688,35.937 6.465,-0.031 12.867,-0.066 19.227,-0.086 17.308,-0.062 34.539,-0.152 51.726,0.063 11.422,0.144 23.395,1.328 32.332,7.359 8.832,5.957 13.75,15.84 16.161,26.215 1.445,6.226 1.461,12.793 1.847,19.16 0.36,5.902 0.992,11.676 0.625,17.063 -0.543,7.984 -3.363,14.902 -8.898,20.847 -5.008,5.379 -11.66,8.84 -18.793,10.61 -8.559,2.121 -17.528,1.75 -26.387,1.5 -10.746,-0.305 -21.473,-0.403 -32.07,-0.989 -9.61,-0.535 -19.051,-1.484 -27.77,-5.82 -3.398,-1.691 -6.648,-4.051 -7.613,-7.703 -1.148,-4.352 1.352,-9.793 -2.281,-12.856 -2.032,-1.711 -5.024,-1.484 -6.84,0.411 -1.438,1.507 -1.731,3.687 -1.813,5.82 z"
         style="fill:#250626;fill-opacity:1;fill-rule:nonzero;stroke:none"
         transform="scale(1.3333333)"
         clip-path="url(#clipPath4)"
         id="path5" />
    </g>
    <g
       id="g8"
       clip-path="url(#clipPath9)">
      <path
         d="m 53.238,159.113 c -0.617,0.77 -1.359,1.567 -2.226,2.391 -0.86,0.82 -1.793,1.57 -2.801,2.25 -1.008,0.68 -2.055,1.23 -3.141,1.652 -1.078,0.422 -2.148,0.633 -3.211,0.633 -1.718,0 -2.578,-0.766 -2.578,-2.309 0,-1.031 0.266,-2.136 0.797,-3.328 0.531,-1.195 1.215,-2.297 2.051,-3.304 0.844,-1.008 1.769,-1.844 2.777,-2.52 1.016,-0.68 1.981,-1.019 2.895,-1.019 0.515,0 0.871,0.093 1.066,0.281 0.203,0.183 0.305,0.418 0.305,0.703 0,0.441 -0.137,0.914 -0.41,1.43 -0.274,0.515 -0.688,1.007 -1.242,1.465 -0.547,0.457 -1.243,0.839 -2.086,1.148 -0.844,0.316 -1.852,0.469 -3.024,0.469 -0.18,0.328 -0.383,0.855 -0.609,1.57 -0.219,0.715 -0.328,1.437 -0.328,2.168 0,1.5 0.679,2.25 2.039,2.25 0.843,0 1.715,-0.199 2.613,-0.598 0.898,-0.402 1.77,-0.906 2.613,-1.511 0.844,-0.61 1.621,-1.266 2.332,-1.981 0.719,-0.715 1.317,-1.383 1.793,-2.004 0.071,-0.074 0.149,-0.094 0.235,-0.058 0.093,0.043 0.14,0.117 0.14,0.222 z m -5.765,-4.289 c 0,-0.472 -0.239,-0.715 -0.715,-0.715 -0.367,0 -0.746,0.141 -1.137,0.411 -0.383,0.277 -0.758,0.632 -1.125,1.078 -0.367,0.441 -0.715,0.914 -1.043,1.429 -0.328,0.512 -0.601,1.004 -0.82,1.477 0.07,0.043 0.195,0.07 0.375,0.082 0.187,0.019 0.336,0.023 0.445,0.023 1.063,0 1.996,-0.375 2.801,-1.125 0.812,-0.75 1.219,-1.632 1.219,-2.66 z m 20.449,3.738 c -0.656,0.915 -1.418,1.84 -2.285,2.778 -0.86,0.933 -1.774,1.765 -2.742,2.496 -0.969,0.738 -1.957,1.344 -2.965,1.816 -1.008,0.477 -1.989,0.715 -2.942,0.715 -0.445,0 -0.851,-0.066 -1.218,-0.199 -0.368,-0.125 -0.551,-0.445 -0.551,-0.961 0,-0.504 0.183,-1.152 0.551,-1.945 0.367,-0.785 0.796,-1.617 1.289,-2.496 0.5,-0.879 1.015,-1.782 1.546,-2.696 0.532,-0.918 0.961,-1.761 1.29,-2.531 0.078,-0.187 0.089,-0.34 0.035,-0.469 -0.055,-0.129 -0.176,-0.14 -0.364,-0.035 -0.398,0.258 -0.875,0.61 -1.429,1.055 -0.547,0.441 -1.106,0.91 -1.676,1.406 -0.57,0.492 -1.121,0.996 -1.652,1.512 -0.532,0.512 -0.961,0.969 -1.289,1.371 -0.586,0.914 -1.09,1.758 -1.512,2.531 -0.422,0.77 -0.946,1.629 -1.57,2.578 -0.149,0.219 -0.258,0.328 -0.329,0.328 -0.179,0 -0.336,-0.199 -0.468,-0.597 -0.125,-0.403 -0.188,-0.66 -0.188,-0.774 0,-0.328 0.227,-0.773 0.68,-1.347 0.461,-0.567 0.965,-1.2 1.512,-1.899 0.585,-1.172 1.191,-2.402 1.816,-3.703 0.625,-1.301 1.156,-2.473 1.594,-3.504 0.109,-0.176 0.277,-0.269 0.504,-0.269 0.218,0 0.418,0.093 0.597,0.281 0.188,0.184 0.282,0.383 0.282,0.598 0,0.152 -0.266,0.656 -0.797,1.511 -0.532,0.864 -1.055,1.864 -1.571,3 0.696,-0.621 1.453,-1.281 2.274,-1.98 0.828,-0.692 1.617,-1.336 2.367,-1.922 0.758,-0.59 1.418,-1.078 1.98,-1.465 0.571,-0.379 0.965,-0.574 1.184,-0.574 0.148,0 0.285,0.082 0.41,0.246 0.133,0.164 0.199,0.324 0.199,0.469 0,0.152 -0.093,0.371 -0.281,0.656 -0.398,0.586 -0.891,1.344 -1.476,2.262 -0.586,0.914 -1.149,1.863 -1.688,2.836 -0.531,0.972 -0.98,1.898 -1.348,2.777 -0.359,0.879 -0.539,1.57 -0.539,2.074 0,0.446 0.09,0.75 0.27,0.914 0.187,0.164 0.48,0.246 0.879,0.246 0.625,0 1.359,-0.234 2.203,-0.714 0.844,-0.473 1.715,-1.067 2.613,-1.782 0.899,-0.715 1.75,-1.511 2.555,-2.39 0.805,-0.879 1.465,-1.723 1.98,-2.532 0.071,-0.117 0.18,-0.14 0.328,-0.082 0.149,0.059 0.129,0.196 -0.058,0.41 z m 7.371,-12.374 c 0,0.441 -0.191,0.878 -0.574,1.324 -0.383,0.441 -0.813,0.656 -1.289,0.656 -0.438,0 -0.657,-0.223 -0.657,-0.668 0,-0.473 0.172,-0.93 0.516,-1.371 0.352,-0.434 0.781,-0.656 1.289,-0.656 0.477,0 0.715,0.242 0.715,0.715 z m 2.484,12.257 c -0.882,1.145 -1.894,2.227 -3.035,3.258 -1.133,1.027 -2.176,1.848 -3.129,2.461 -0.734,0.481 -1.488,0.844 -2.261,1.102 -0.766,0.257 -1.461,0.386 -2.086,0.386 -0.219,0 -0.477,-0.011 -0.774,-0.047 -0.289,-0.035 -0.554,-0.128 -0.797,-0.281 -0.234,-0.144 -0.433,-0.34 -0.597,-0.574 -0.164,-0.238 -0.246,-0.562 -0.246,-0.973 0,-0.472 0.183,-1.125 0.55,-1.945 0.368,-0.824 0.797,-1.676 1.289,-2.555 0.493,-0.879 0.985,-1.722 1.477,-2.531 0.5,-0.801 0.898,-1.406 1.195,-1.816 0.18,-0.293 0.496,-0.539 0.949,-0.739 0.461,-0.199 0.766,-0.304 0.915,-0.304 0.187,0 0.281,0.058 0.281,0.164 0,0.07 -0.028,0.183 -0.082,0.328 -0.055,0.152 -0.121,0.258 -0.199,0.328 -0.477,0.738 -0.965,1.547 -1.465,2.426 -0.492,0.879 -0.942,1.73 -1.348,2.555 -0.398,0.82 -0.719,1.582 -0.961,2.285 -0.234,0.699 -0.351,1.242 -0.351,1.64 0,0.446 0.117,0.774 0.351,0.973 0.242,0.199 0.567,0.293 0.973,0.293 0.734,0 1.539,-0.246 2.414,-0.738 0.883,-0.493 1.754,-1.082 2.613,-1.782 0.867,-0.703 1.664,-1.433 2.391,-2.203 0.734,-0.773 1.304,-1.429 1.711,-1.98 0.179,-0.188 0.277,-0.235 0.293,-0.141 0.023,0.094 0,0.235 -0.071,0.41 z m 15.453,-2.144 c -0.628,0.844 -1.39,1.605 -2.285,2.285 -0.902,0.68 -1.918,1.019 -3.047,1.019 -0.628,0 -1.242,-0.152 -1.851,-0.468 -0.606,-0.309 -1.09,-0.778 -1.453,-1.407 -0.258,0.586 -0.594,1.262 -0.996,2.016 -0.399,0.75 -0.879,1.5 -1.43,2.25 -0.551,0.75 -1.16,1.442 -1.84,2.063 -0.676,0.629 -1.394,1.136 -2.168,1.535 -0.656,0.297 -1.207,0.445 -1.652,0.445 -1.324,0 -1.981,-0.586 -1.981,-1.758 0,-0.66 0.118,-1.34 0.352,-2.039 0.238,-0.691 0.543,-1.371 0.914,-2.027 0.363,-0.66 0.762,-1.289 1.184,-1.875 0.421,-0.586 0.812,-1.059 1.183,-1.43 0.774,-0.844 1.652,-1.558 2.637,-2.144 0.988,-0.586 2.055,-0.93 3.199,-1.043 0.07,-0.293 0.176,-0.633 0.316,-1.02 0.145,-0.379 0.403,-0.609 0.774,-0.691 0.187,-0.028 0.367,-0.063 0.551,-0.106 0.187,-0.035 0.351,-0.094 0.504,-0.164 0.105,-0.074 0.214,-0.086 0.328,-0.035 0.105,0.059 0.121,0.16 0.047,0.305 -0.254,0.41 -0.446,0.926 -0.575,1.547 -0.129,0.621 -0.187,1.296 -0.187,2.027 0,1.031 0.187,1.883 0.574,2.543 0.379,0.656 1.047,0.984 2.004,0.984 0.949,0 1.809,-0.308 2.578,-0.937 0.774,-0.621 1.418,-1.301 1.934,-2.039 0.07,-0.176 0.187,-0.227 0.351,-0.153 0.168,0.071 0.18,0.176 0.035,0.317 z m -9.07,0.387 c -0.082,-0.329 -0.14,-0.708 -0.176,-1.149 -0.035,-0.445 -0.046,-0.867 -0.046,-1.266 0,-0.187 -0.079,-0.281 -0.223,-0.281 -0.41,0 -0.832,0.141 -1.266,0.422 -0.441,0.277 -0.879,0.645 -1.324,1.102 -0.441,0.457 -0.879,0.972 -1.313,1.558 -0.441,0.586 -0.843,1.196 -1.207,1.817 -0.48,0.808 -0.914,1.675 -1.3,2.613 -0.387,0.934 -0.559,1.816 -0.516,2.66 0,0.258 0.039,0.5 0.129,0.715 0.094,0.223 0.305,0.328 0.633,0.328 0.621,0 1.301,-0.344 2.039,-1.043 0.73,-0.691 1.43,-1.504 2.086,-2.437 0.66,-0.938 1.219,-1.879 1.676,-2.836 0.457,-0.95 0.726,-1.688 0.808,-2.203 z m 16.77,-2.25 c -0.219,0.257 -0.45,0.574 -0.692,0.937 -0.234,0.363 -0.39,0.633 -0.468,0.82 -0.04,0.114 -0.114,0.164 -0.223,0.164 -0.031,0 -0.086,-0.05 -0.164,-0.164 -0.071,-0.105 -0.172,-0.222 -0.305,-0.351 -0.125,-0.129 -0.297,-0.25 -0.516,-0.364 -0.218,-0.105 -0.531,-0.164 -0.937,-0.164 -0.477,0 -1.008,0.164 -1.594,0.493 -0.586,0.328 -1.097,0.699 -1.535,1.101 -0.703,0.586 -1.32,1.231 -1.851,1.922 -0.532,0.699 -1.036,1.426 -1.512,2.18 -0.477,0.75 -0.934,1.523 -1.371,2.308 -0.438,0.785 -0.914,1.582 -1.43,2.391 -0.039,0.109 -0.148,0.164 -0.328,0.164 -0.07,0 -0.227,-0.109 -0.469,-0.328 -0.234,-0.223 -0.351,-0.391 -0.351,-0.504 0,-0.215 0.125,-0.543 0.375,-0.984 0.586,-1.02 1.179,-2.055 1.781,-3.106 0.609,-1.043 1.18,-2.027 1.711,-2.941 0.531,-0.918 1,-1.715 1.406,-2.391 0.406,-0.68 0.68,-1.183 0.82,-1.512 0.188,-0.332 0.317,-0.504 0.387,-0.504 0.078,0 0.262,0.094 0.551,0.282 0.297,0.183 0.445,0.433 0.445,0.761 0,0.118 -0.066,0.305 -0.199,0.563 -0.125,0.254 -0.27,0.516 -0.434,0.797 -0.164,0.277 -0.32,0.539 -0.468,0.797 -0.149,0.254 -0.258,0.433 -0.329,0.539 -0.109,0.187 -0.128,0.281 -0.058,0.281 0.07,0 0.16,-0.051 0.269,-0.164 0.368,-0.363 0.817,-0.766 1.348,-1.207 0.531,-0.445 1.09,-0.856 1.676,-1.242 0.594,-0.379 1.172,-0.703 1.734,-0.961 0.571,-0.258 1.074,-0.387 1.512,-0.387 0.336,0 0.621,0.082 0.855,0.246 0.243,0.164 0.364,0.34 0.364,0.528 z"
         style="fill:#250626;fill-opacity:1;fill-rule:nonzero;stroke:none"
         transform="scale(1.3333333)"
         clip-path="url(#clipPath7)"
         id="path8" />
    </g>
  </g>
</svg>
